<svg width="162" height="42" viewBox="0 0 162 42" fill="none" xmlns="http://www.w3.org/2000/svg">
<path d="M161.118 20.5691C161.118 25.0271 160.251 28.7876 158.518 31.8508C156.784 34.901 154.444 37.2147 151.498 38.7919C148.553 40.3561 145.268 41.1382 141.644 41.1382C137.994 41.1382 134.696 40.3496 131.751 38.7724C128.818 37.1821 126.484 34.8619 124.751 31.8117C123.03 28.7485 122.17 25.001 122.17 20.5691C122.17 16.1112 123.03 12.3571 124.751 9.30694C126.484 6.24373 128.818 3.93003 131.751 2.36584C134.696 0.788613 137.994 0 141.644 0C145.268 0 148.553 0.788613 151.498 2.36584C154.444 3.93003 156.784 6.24373 158.518 9.30694C160.251 12.3571 161.118 16.1112 161.118 20.5691Z" fill="black"/>
<path d="M97.4273 40.5906H82.02V0.547363H97.2709C101.39 0.547363 104.948 1.34901 107.946 2.95231C110.958 4.54257 113.278 6.83671 114.907 9.83475C116.55 12.8197 117.371 16.3978 117.371 20.569C117.371 24.7402 116.556 28.3248 114.927 31.3228C113.297 34.3078 110.99 36.602 108.005 38.2053C105.02 39.7955 101.494 40.5906 97.4273 40.5906ZM92.8911 31.3619H97.0363C99.0176 31.3619 100.706 31.0426 102.1 30.4039C103.508 29.7651 104.577 28.6637 105.307 27.0995C106.05 25.5353 106.421 23.3585 106.421 20.569C106.421 17.7795 106.043 15.6027 105.287 14.0385C104.544 12.4743 103.449 11.3729 102.003 10.7342C100.569 10.0954 98.809 9.77609 96.7234 9.77609H92.8911V31.3619Z" fill="black"/>
<path d="M43.7473 40.5906V0.547363H61.0316C64.0036 0.547363 66.604 1.08831 68.833 2.17021C71.062 3.25211 72.7956 4.80978 74.034 6.84323C75.2723 8.87668 75.8914 11.3142 75.8914 14.1558C75.8914 17.0235 75.2527 19.4415 73.9753 21.4098C72.7109 23.378 70.9316 24.864 68.6375 25.8677C66.3564 26.8714 63.6907 27.3732 60.6406 27.3732H50.3169V18.9266H58.4507C59.7281 18.9266 60.8165 18.7702 61.716 18.4573C62.6284 18.1315 63.3258 17.6166 63.8081 16.9127C64.3034 16.2088 64.5511 15.2899 64.5511 14.1558C64.5511 13.0087 64.3034 12.0768 63.8081 11.3598C63.3258 10.6299 62.6284 10.0954 61.716 9.75654C60.8165 9.40459 59.7281 9.22862 58.4507 9.22862H54.6184V40.5906H43.7473ZM67.2102 22.2114L77.221 40.5906H65.4114L55.6352 22.2114H67.2102Z" fill="black"/>
<path d="M38.9484 20.5691C38.9484 25.0271 38.0815 28.7876 36.3479 31.8508C34.6142 34.901 32.2745 37.2147 29.3286 38.7919C26.3827 40.3561 23.0979 41.1382 19.4742 41.1382C15.8244 41.1382 12.5266 40.3496 9.58067 38.7724C6.64781 37.1821 4.31456 34.8619 2.58091 31.8117C0.860305 28.7485 0 25.001 0 20.5691C0 16.1112 0.860305 12.3571 2.58091 9.30694C4.31456 6.24373 6.64781 3.93003 9.58067 2.36584C12.5266 0.788613 15.8244 0 19.4742 0C23.0979 0 26.3827 0.788613 29.3286 2.36584C32.2745 3.93003 34.6142 6.24373 36.3479 9.30694C38.0815 12.3571 38.9484 16.1112 38.9484 20.5691Z" fill="black"/>
</svg>
