<svg width="101" height="26" viewBox="0 0 101 26" fill="none" xmlns="http://www.w3.org/2000/svg">
<g clip-path="url(#clip0_2831_1827)">
<g clip-path="url(#clip1_2831_1827)">
<path d="M99.7369 12.7333C99.7369 15.493 99.2001 17.8209 98.1273 19.7172C97.0539 21.6054 95.6053 23.0377 93.7816 24.014C91.9585 24.9823 89.925 25.4665 87.6815 25.4665C85.422 25.4665 83.3804 24.9783 81.5573 24.002C79.7416 23.0175 78.2968 21.5812 77.224 19.693C76.1586 17.7967 75.6262 15.4768 75.6262 12.7333C75.6262 9.9736 76.1586 7.64963 77.224 5.76144C78.2968 3.86517 79.7416 2.43288 81.5573 1.46457C83.3804 0.488189 85.422 0 87.6815 0C89.925 0 91.9585 0.488189 93.7816 1.46457C95.6053 2.43288 97.0539 3.86517 98.1273 5.76144C99.2001 7.64963 99.7369 9.9736 99.7369 12.7333Z" fill="currentColor"/>
<path d="M60.3093 25.1275H50.7714V0.338867H60.2125C62.7624 0.338867 64.9649 0.835125 66.8209 1.82764C68.6854 2.81209 70.1216 4.23227 71.13 6.0882C72.1471 7.93603 72.6554 10.151 72.6554 12.7332C72.6554 15.3154 72.1509 17.5344 71.1424 19.3903C70.1334 21.2382 68.7052 22.6584 66.8574 23.6509C65.0095 24.6353 62.8268 25.1275 60.3093 25.1275ZM57.5012 19.4145H60.0672C61.2937 19.4145 62.3389 19.2169 63.2019 18.8215C64.0735 18.426 64.7353 17.7442 65.1872 16.7759C65.6471 15.8076 65.8768 14.46 65.8768 12.7332C65.8768 11.0064 65.6428 9.65884 65.1748 8.69052C64.7149 7.72221 64.037 7.04039 63.1419 6.645C62.2541 6.24956 61.1646 6.05189 59.8735 6.05189H57.5012V19.4145Z" fill="currentColor"/>
<path d="M27.0788 25.1275V0.338867H37.7786C39.6184 0.338867 41.2282 0.673739 42.608 1.34349C43.9879 2.01323 45.0611 2.97751 45.8277 4.23631C46.5943 5.49511 46.9775 7.00405 46.9775 8.76314C46.9775 10.5384 46.5821 12.0352 45.7914 13.2537C45.0086 14.4721 43.9072 15.392 42.487 16.0134C41.0749 16.6347 39.4247 16.9453 37.5366 16.9453H31.1457V11.7165H36.1809C36.9717 11.7165 37.6454 11.6197 38.2023 11.426C38.7671 11.2243 39.1988 10.9055 39.4974 10.4698C39.804 10.034 39.9573 9.4652 39.9573 8.76314C39.9573 8.05303 39.804 7.47614 39.4974 7.03228C39.1988 6.58044 38.7671 6.24956 38.2023 6.03979C37.6454 5.82191 36.9717 5.71298 36.1809 5.71298H33.8085V25.1275H27.0788ZM41.6034 13.7499L47.8006 25.1275H40.4899L34.438 13.7499H41.6034Z" fill="currentColor"/>
<path d="M24.108 12.7333C24.108 15.493 23.5714 17.8209 22.4982 19.7172C21.425 21.6054 19.9766 23.0377 18.1529 24.014C16.3293 24.9823 14.2958 25.4665 12.0526 25.4665C9.79319 25.4665 7.75169 24.9783 5.92802 24.002C4.11244 23.0175 2.66805 21.5812 1.59484 19.693C0.529701 17.7967 -0.00286865 15.4768 -0.00286865 12.7333C-0.00286865 9.9736 0.529701 7.64963 1.59484 5.76144C2.66805 3.86517 4.11244 2.43288 5.92802 1.46457C7.75169 0.488189 9.79319 0 12.0526 0C14.2958 0 16.3293 0.488189 18.1529 1.46457C19.9766 2.43288 21.425 3.86517 22.4982 5.76144C23.5714 7.64963 24.108 9.9736 24.108 12.7333Z" fill="currentColor"/>
</g>
</g>
<defs>
<clipPath id="clip0_2831_1827">
<rect width="100.28" height="26" fill="white"/>
</clipPath>
<clipPath id="clip1_2831_1827">
<rect width="100.286" height="26" fill="white" transform="translate(-0.00286865)"/>
</clipPath>
</defs>
</svg>
